<svg id="Layer_1" data-name="Layer 1" xmlns="http://www.w3.org/2000/svg" viewBox="0 0 61.39 61.39"><defs><style>.cls-1{fill:#414042;}.cls-2{fill:#434343;}</style></defs><title>heart</title><path class="cls-1" d="M-343.75,207a30.73,30.73,0,0,1-30.69-30.7,30.73,30.73,0,0,1,30.69-30.69,30.73,30.73,0,0,1,30.69,30.69A30.73,30.73,0,0,1-343.75,207Zm0-56.76a26.09,26.09,0,0,0-26.06,26.06,26.09,26.09,0,0,0,26.06,26.06,26.09,26.09,0,0,0,26.06-26.06A26.09,26.09,0,0,0-343.75,150.24Z" transform="translate(374.44 -145.61)"/><path class="cls-2" d="M-343.77,189.1a1.24,1.24,0,0,1-.41-.08c-.5-.19-12.3-4.76-12.3-13.86,0-3.49,3.12-6.33,6.95-6.33a8,8,0,0,1,5.89,3.31c1.24-1.69,3.19-3.31,5.55-3.31,3.8,0,6.89,2.82,6.89,6.28,0,9.27-11.67,13.73-12.17,13.91A1.19,1.19,0,0,1-343.77,189.1Z" transform="translate(374.44 -145.61)"/></svg>