<svg id="Layer_1" data-name="Layer 1" xmlns="http://www.w3.org/2000/svg" viewBox="0 0 51.94 51.9"><defs><style>.cls-1{fill:#414042;}</style></defs><title>leaf</title><path class="cls-1" d="M-561.94,302.32c0-3.31.89-5.88,2.66-7.65s4.35-2.67,7.66-2.67c10.45,0,27.2,9.19,33.38,15.38a20,20,0,0,1,5.86,14.17,19.94,19.94,0,0,1-5.86,14.17,19.9,19.9,0,0,1-14.18,5.88,19.92,19.92,0,0,1-14.18-5.88C-552.78,329.54-561.94,312.78-561.94,302.32Zm45.23,19.34a15.86,15.86,0,0,0-4.61-11.24c-5.56-5.62-21.35-14.22-30.3-14.22-2.11,0-3.66.47-4.58,1.41s-1.4,2.51-1.4,4.66c0,9.05,8.52,25,14.09,30.62a15.51,15.51,0,0,0,11.1,4.64,15.52,15.52,0,0,0,11.1-4.64A15.86,15.86,0,0,0-516.71,321.66Z" transform="translate(561.94 -292)"/><path class="cls-1" d="M-558.84,296.79a2.16,2.16,0,0,1,.64-1.54,2.17,2.17,0,0,1,3.07,0l44.5,44.94a2.17,2.17,0,0,1,0,3.07,2.17,2.17,0,0,1-3.07,0l-44.5-44.94A2.16,2.16,0,0,1-558.84,296.79Z" transform="translate(561.94 -292)"/><path class="cls-1" d="M-531.56,322.29V306.94a2.14,2.14,0,0,1,2.1-2.18,2.14,2.14,0,0,1,2.1,2.18v15.35a2.14,2.14,0,0,1-2.1,2.18A2.14,2.14,0,0,1-531.56,322.29Z" transform="translate(561.94 -292)"/><path class="cls-1" d="M-551.13,318a2.19,2.19,0,0,1,2.3-2.07h10.33a2.19,2.19,0,0,1,2.29,2.07,2.19,2.19,0,0,1-2.29,2.07h-10.33A2.19,2.19,0,0,1-551.13,318Z" transform="translate(561.94 -292)"/><path class="cls-1" d="M-544.62,309v-8.37a2.16,2.16,0,0,1,2.08-2.23,2.16,2.16,0,0,1,2.08,2.23V309a2.16,2.16,0,0,1-2.08,2.23A2.16,2.16,0,0,1-544.62,309Z" transform="translate(561.94 -292)"/><path class="cls-1" d="M-540.19,331a2.12,2.12,0,0,1,2.21-2h15a2.12,2.12,0,0,1,2.21,2,2.12,2.12,0,0,1-2.21,2h-15A2.12,2.12,0,0,1-540.19,331Z" transform="translate(561.94 -292)"/></svg>