<svg id="Слой_1" data-name="Слой 1" xmlns="http://www.w3.org/2000/svg" viewBox="0 0 192.76 192.76"><defs><style>.cls-1{fill:#fff;}.cls-1,.cls-2,.cls-3{fill-rule:evenodd;}.cls-2{fill:#d24a43;}.cls-3{fill:#201600;}</style></defs><title>Adobe</title><polygon class="cls-1" points="0 0 192.76 0 192.76 192.76 0 192.76 0 0 0 0"/><path class="cls-2" d="M302.46,354.88c.13.13,28.18,64.11,28.15,64.06H312.22c0-.2-8.71-20.86-8.62-21H283.79c.18.05,18.95-43.3,18.67-43.09Z" transform="translate(-209 -300)"/><path class="cls-2" d="M242.71,315.58H285.8c.13,0-42.8,103.34-42.94,103.21s-.1-103.28-.14-103.21Z" transform="translate(-209 -300)"/><path class="cls-2" d="M318.6,315.58h44.55c0,.26,0,103.41,0,103.26,0,.33-44.52-103.26-44.52-103.26Z" transform="translate(-209 -300)"/><path class="cls-3" d="M260.21,435.1l9.57,41h-7l-1.64-7.67H252.5l-1.6,7.67h-7l9.57-41Zm-.36,26.33-3-15.33-3,15.33Z" transform="translate(-209 -300)"/><path class="cls-3" d="M285.46,476.06l-.18-3.57h-.23c-1,2.81-3,4.68-5.61,4.68-6.15,0-8.75-7.2-8.75-16.09,0-7.61,1.91-15.86,8.84-15.86,2.42,0,3.56.88,5.29,3.16V435.1H291v41Zm-4.38-24.81c-1.69,0-4,1.64-4,9.95,0,3.86.5,10.07,4,10.07s4-5.56,4-10.07c0-8.31-2.37-9.95-4-9.95Z" transform="translate(-209 -300)"/><path class="cls-3" d="M295.31,461.14c0-9.19,3.19-15.92,10.44-15.92s10.44,6.73,10.44,15.92-3.28,16-10.44,16-10.44-6.73-10.44-16Zm14.5,0c0-8.08-1.69-9.95-4.06-9.95-1.87,0-4.06,1.4-4.06,9.95,0,8.72,2.19,10.07,4.06,10.07,2.64,0,4.06-2.46,4.06-10.07Z" transform="translate(-209 -300)"/><path class="cls-3" d="M325.94,476.06h-5.52v-41h6.2v13.64a5.5,5.5,0,0,1,5.24-3.51c6.52,0,8.89,6.85,8.89,15.86s-2.32,16.09-8.84,16.09c-2.69,0-4.29-1.35-5.61-4.68h-.18l-.18,3.57Zm4.42-4.86c3.37,0,4-5.56,4-10.07,0-8.31-2.37-9.95-4-9.95s-4,1.64-4,9.95c0,3.86.5,10.07,4,10.07Z" transform="translate(-209 -300)"/><path class="cls-3" d="M364.1,467.46c-1.55,9-6.56,9.71-9.94,9.71-3.78,0-10.26-1.4-10.26-16,0-10.18,4.19-15.92,10.71-15.92,4.1,0,9.89,2.28,9.89,16.5v1.64H350.29c0,7,2.42,7.84,4.15,7.84,1.41,0,2.87-.41,3.46-3.75Zm-6-9.07c-.18-6-1.64-7.2-3.69-7.2-3.51,0-4.1,5-4.15,7.2Z" transform="translate(-209 -300)"/><path class="cls-3" d="M366.29,318v-2.41H376.8V318h-3.89v10.22h-2.73V318Zm13.89.47v9.75h-2.73V315.58h3.6l3.56,9.93,3.53-9.93h3.56v12.62H389v-9.75l-3.45,9.75H383.6l-3.42-9.75Z" transform="translate(-209 -300)"/></svg>