<svg id="Layer_1" data-name="Layer 1" xmlns="http://www.w3.org/2000/svg" viewBox="0 0 426.4 82.56"><defs><style>.cls-1{fill:#5a5d63;}</style></defs><title>facebook</title><g id="_Группа_" data-name="&lt;Группа&gt;"><path id="_Контур_" data-name="&lt;Контур&gt;" class="cls-1" d="M76.16,227.66c-5,0-6.47,2.23-6.47,7.14v8.14H83.08l-1.34,13.17H69.69v39.94H53.62V256.11H42.8V242.95H53.62V235c0-13.27,5.36-20.3,20.31-20.3a76,76,0,0,1,9.37.55v12.39" transform="translate(-42.8 -214.72)"/><path id="_Составной_контур_" data-name="&lt;Составной контур&gt;" class="cls-1" d="M84.19,267.83c0-14.84,7-26,21.76-26,8,0,12.94,4.13,15.28,9.26v-8.14h15.4v53.11h-15.4v-8c-2.23,5.13-7.25,9.14-15.28,9.14-14.73,0-21.76-11.15-21.76-26m16.07.22c0,7.92,2.9,13.16,10.38,13.16,6.58,0,9.93-4.8,9.93-12.38v-5.36c0-7.59-3.35-12.39-9.93-12.39-7.47,0-10.38,5.25-10.38,13.17Z" transform="translate(-42.8 -214.72)"/><path id="_Контур_2" data-name="&lt;Контур&gt;" class="cls-1" d="M170.1,241.83c6.24,0,12.16,1.34,15.39,3.57l-3.57,11.38a25.27,25.27,0,0,0-10.71-2.45c-8.71,0-12.5,5-12.5,13.61v3.12c0,8.59,3.79,13.61,12.5,13.61a25.27,25.27,0,0,0,10.71-2.45l3.57,11.38c-3.23,2.23-9.15,3.57-15.39,3.57-18.85,0-27.45-10.15-27.45-26.44v-2.45c0-16.29,8.59-26.44,27.45-26.44" transform="translate(-42.8 -214.72)"/><path id="_Составной_контур_2" data-name="&lt;Составной контур&gt;" class="cls-1" d="M187.61,271.51v-4.69c0-15.06,8.59-25,26.11-25,16.51,0,23.76,10,23.76,24.77v8.48h-33.8c.33,7.26,3.57,10.49,12.5,10.49a45.73,45.73,0,0,0,17.07-3.23l2.9,11c-4.24,2.23-12.94,3.9-20.64,3.9-20.3,0-27.89-10.15-27.89-25.77m16.07-6.92h19.41v-1.34c0-5.8-2.34-10.38-9.37-10.38-7.26,0-10,4.57-10,11.71" transform="translate(-42.8 -214.72)"/><path id="_Составной_контур_3" data-name="&lt;Составной контур&gt;" class="cls-1" d="M297.06,271.17c0,14.84-7.14,26-21.87,26-8,0-13.61-4-15.84-9.15v8H244.18V216.27l16.07-1.45v35.48c2.34-4.69,7.47-8.48,15-8.48,14.73,0,21.87,11.15,21.87,26M281,267.49c0-7.48-2.9-13.05-10.6-13.05-6.58,0-10.15,4.69-10.15,12.27v5.58c0,7.59,3.57,12.27,10.15,12.27,7.69,0,10.6-5.58,10.6-13.06Z" transform="translate(-42.8 -214.72)"/><path id="_Составной_контур_4" data-name="&lt;Составной контур&gt;" class="cls-1" d="M302.41,270.84v-2.68c0-15.28,8.7-26.33,26.44-26.33s26.44,11,26.44,26.33v2.68c0,15.29-8.71,26.33-26.44,26.33s-26.44-11-26.44-26.33M339.23,267c0-7-2.9-12.61-10.38-12.61S318.48,260,318.48,267V272c0,7,2.9,12.61,10.38,12.61S339.23,279,339.23,272Z" transform="translate(-42.8 -214.72)"/><path id="_Составной_контур_5" data-name="&lt;Составной контур&gt;" class="cls-1" d="M360.65,270.84v-2.68c0-15.28,8.7-26.33,26.44-26.33s26.44,11,26.44,26.33v2.68c0,15.29-8.71,26.33-26.44,26.33s-26.44-11-26.44-26.33M397.47,267c0-7-2.9-12.61-10.38-12.61S376.72,260,376.72,267V272c0,7,2.9,12.61,10.38,12.61S397.47,279,397.47,272Z" transform="translate(-42.8 -214.72)"/><polyline id="_Контур_3" data-name="&lt;Контур&gt;" class="cls-1" points="392.82 53.55 408.66 28.22 425.73 28.22 409.11 54.44 426.4 81.33 409.33 81.33 392.82 55.34 392.82 81.33 376.75 81.33 376.75 1.56 392.82 0.1"/></g></svg>