<svg id="Layer_1" data-name="Layer 1" xmlns="http://www.w3.org/2000/svg" viewBox="0 0 241.77 69.24"><defs><style>.cls-1{fill:#d6a148;}.cls-2{fill:#79bb91;}.cls-3{fill:#c85273;}.cls-4{fill:#3d3648;}.cls-5{fill:#b14c43;}.cls-6{fill:#8ec9db;}.cls-7{fill:#62957e;}.cls-8{fill:#6a8150;}.cls-9{fill:#3b4046;}</style></defs><title>slack</title><path class="cls-1" d="M210.69,82a6,6,0,0,0-11.38,3.7l15.48,47.61a6,6,0,0,0,11.38-3.7Z" transform="translate(-167.12 -75.82)"/><path class="cls-2" d="M186.71,89.8a6,6,0,0,0-11.38,3.7l15.48,47.61a6,6,0,0,0,11.38-3.7Z" transform="translate(-167.12 -75.82)"/><path class="cls-3" d="M230.17,121.45a6,6,0,1,0-3.7-11.38l-47.61,15.48a6,6,0,0,0,3.7,11.38Z" transform="translate(-167.12 -75.82)"/><path class="cls-4" d="M188.78,134.89l11.38-3.7-3.7-11.38-11.38,3.7Z" transform="translate(-167.12 -75.82)"/><path class="cls-5" d="M212.76,127.1l11.38-3.7L220.44,112l-11.38,3.7Z" transform="translate(-167.12 -75.82)"/><path class="cls-6" d="M222.37,97.47a6,6,0,0,0-3.7-11.38l-47.61,15.48a6,6,0,0,0,3.7,11.38Z" transform="translate(-167.12 -75.82)"/><path class="cls-7" d="M181,110.92l11.38-3.7-3.7-11.38-11.38,3.7Z" transform="translate(-167.12 -75.82)"/><path class="cls-8" d="M205,103.12l11.38-3.7L212.65,88l-11.38,3.7Z" transform="translate(-167.12 -75.82)"/><path class="cls-9" d="M278.46,94.55c2.11.92,2.26,1.61.61,4.75s-2.11,3.41-4.17,2.57a23.8,23.8,0,0,0-8.08-2c-3.52,0-5.86,1.26-5.86,3.18,0,6.32,20.18,2.91,20.18,16.39,0,6.78-5.82,11.29-14.55,11.29a34.24,34.24,0,0,1-14.17-3.52c-2-1-2.07-1.57-.38-4.79,1.46-2.83,1.91-3.14,4-2.26a29.59,29.59,0,0,0,10.38,2.57c3.22,0,5.36-1.3,5.36-3.22,0-6.13-20.52-3.22-20.52-16.27,0-6.93,5.78-11.56,14.43-11.56A34.2,34.2,0,0,1,278.46,94.55Z" transform="translate(-167.12 -75.82)"/><path class="cls-9" d="M294.74,78.54v50.23a1.82,1.82,0,0,1-2,1.57H287.5a1.82,1.82,0,0,1-2-1.57V78.54c0-2.49.69-2.72,4.59-2.72C294.58,75.82,294.74,76.13,294.74,78.54Z" transform="translate(-167.12 -75.82)"/><path class="cls-9" d="M332.3,106.8v21.63a1.87,1.87,0,0,1-2,2h-5.21a1.88,1.88,0,0,1-2-2.07l.08-2.34a14.77,14.77,0,0,1-11,4.79c-7.89,0-13.17-4.56-13.17-11.37,0-7.24,6-12.1,14.93-12.14a24.08,24.08,0,0,1,9,1.65v-2.49c0-4-3.14-6.36-8.46-6.36a17.27,17.27,0,0,0-8,2.41c-1.88,1.07-2.34,1-4.36-2s-1.91-3.6,0-4.82a25.54,25.54,0,0,1,13.25-3.91C325.83,91.71,332.3,97.3,332.3,106.8Zm-24.35,12.52c0,2.57,2.18,4.29,5.47,4.29a11.41,11.41,0,0,0,9.69-5.17v-3.37a20.41,20.41,0,0,0-7-1.26C311.24,113.8,307.95,116.14,307.95,119.32Z" transform="translate(-167.12 -75.82)"/><path class="cls-9" d="M368.13,94.62c1.91,1.11,2,1.72-.12,5-2,3.06-2.34,3.25-4.44,2.18a15,15,0,0,0-6.28-1.57c-6.62,0-11,4.36-11,11,0,6.85,4.4,11.45,11,11.45a16.24,16.24,0,0,0,7-1.91c1.91-1.11,2.34-1,4.36,1.91,1.84,2.76,1.8,3.41.15,4.56a22.39,22.39,0,0,1-11.72,3.6c-12.25,0-20.45-7.85-20.45-19.6s8.19-19.45,20.52-19.45A23.33,23.33,0,0,1,368.13,94.62Z" transform="translate(-167.12 -75.82)"/><path class="cls-9" d="M408.11,125.6c1.53,2,.92,2.64-2.91,4s-4.44,1.34-5.82-.46l-11-14.63-4.9,4.75v9.5a1.82,1.82,0,0,1-2,1.57h-5.28a1.82,1.82,0,0,1-2-1.57V78.54c0-2.49.69-2.72,4.59-2.72,4.44,0,4.59.31,4.59,2.72V107.1l15-14.4c1.65-1.57,2.57-1.45,5.51.5,3.25,2.11,3.48,2.68,1.91,4.21l-11.18,10.87Z" transform="translate(-167.12 -75.82)"/></svg>