<svg id="Layer_1" data-name="Layer 1" xmlns="http://www.w3.org/2000/svg" viewBox="0 0 42.79 54.04"><defs><style>.cls-1{fill:#434343;}</style></defs><title>drop</title><path class="cls-1" d="M-474.72,14.41c.2-3.72-3.52-3.08-3.8,2.11-.37,7.1,5.55,13.13,13.23,13.48,3.66.17,5.86-2,3.8-2.11C-469.17,27.54-475.09,21.5-474.72,14.41Z" transform="translate(487.65 15.02)"/><path class="cls-1" d="M-466.26,39a21.43,21.43,0,0,1-21.39-21.41c0-11.17,17.75-29.87,19.77-32a2.32,2.32,0,0,1,3.25,0c2,2.09,19.77,20.8,19.77,32A21.43,21.43,0,0,1-466.26,39Zm0-48.51c-6,6.46-17.09,20-17.09,27.25a17.06,17.06,0,0,0,17.09,17,17.06,17.06,0,0,0,17.09-17C-449.17,10.52-460.3-3-466.26-9.5Z" transform="translate(487.65 15.02)"/></svg>