<svg id="Layer_1" data-name="Layer 1" xmlns="http://www.w3.org/2000/svg" viewBox="0 0 558.43 167.48"><defs><style>.cls-1{fill:#1ed760;}</style></defs><title>spotify</title><path class="cls-1" d="M102.13,337.22A83.74,83.74,0,1,0,185.88,421a83.74,83.74,0,0,0-83.74-83.74ZM140.54,458a5.22,5.22,0,0,1-7.18,1.73c-19.66-12-44.41-14.73-73.56-8.07a5.22,5.22,0,0,1-2.32-10.18c31.9-7.29,59.26-4.15,81.34,9.34A5.22,5.22,0,0,1,140.54,458Zm10.25-22.8a6.53,6.53,0,0,1-9,2.15C119.3,423.52,85,419.51,58.36,427.59a6.53,6.53,0,1,1-3.79-12.49c30.41-9.23,68.22-4.76,94.07,11.13a6.53,6.53,0,0,1,2.15,9Zm.88-23.74c-27-16-71.52-17.5-97.29-9.68a7.83,7.83,0,1,1-4.55-15c29.58-9,78.76-7.25,109.83,11.2a7.83,7.83,0,1,1-8,13.47Zm94.56,3.07c-14.46-3.45-17-5.87-17-11,0-4.8,4.52-8,11.25-8,6.52,0,13,2.46,19.76,7.51a1,1,0,0,0,1.34-.21l7.06-10a1,1,0,0,0-.18-1.29A42.72,42.72,0,0,0,240.66,382c-15.61,0-26.52,9.37-26.52,22.77,0,14.37,9.41,19.47,25.67,23.39C253.64,431.33,256,434,256,438.77c0,5.29-4.72,8.58-12.32,8.58-8.44,0-15.33-2.85-23-9.51a1,1,0,0,0-.69-.23.94.94,0,0,0-.65.33l-7.92,9.42a1,1,0,0,0,.09,1.32,47.19,47.19,0,0,0,31.88,12.22c16.82,0,27.69-9.19,27.69-23.42,0-12-7.16-18.66-24.77-22.94Zm62.86-14.26c-7.29,0-13.27,2.87-18.21,8.76V402.4a1,1,0,0,0-.94-.95H277a.94.94,0,0,0-.94.95V476a1,1,0,0,0,.94,1h13a1,1,0,0,0,.94-1V452.77A23.29,23.29,0,0,0,309.09,461c13.55,0,27.27-10.43,27.27-30.37s-13.7-30.38-27.26-30.38Zm12.21,30.37c0,10.15-6.25,17.24-15.21,17.24s-15.53-7.41-15.53-17.24,6.68-17.24,15.53-17.24,15.21,7.25,15.21,17.24Zm50.21-30.37c-17.45,0-31.12,13.44-31.12,30.59,0,17,13.58,30.26,30.91,30.26,17.51,0,31.22-13.39,31.22-30.48s-13.62-30.37-31-30.37Zm0,47.71c-9.28,0-16.28-7.46-16.28-17.34S362,413.5,371.3,413.5s16.38,7.46,16.38,17.35S380.88,448,371.51,448Zm68.27-46.53H425.53V386.89a.94.94,0,0,0-.94-.95h-13a1,1,0,0,0-.95.95v14.57h-6.22a.94.94,0,0,0-.94.95v11.13a1,1,0,0,0,.94.95h6.22v28.79c0,11.63,5.79,17.53,17.22,17.53a23.59,23.59,0,0,0,12.12-3,.92.92,0,0,0,.48-.82v-10.6a1,1,0,0,0-.45-.8.92.92,0,0,0-.92,0,16.34,16.34,0,0,1-7.6,1.83c-4.15,0-6-1.89-6-6.11V414.48h14.25a.94.94,0,0,0,.94-.95V402.41a.92.92,0,0,0-.93-.95Zm49.64.06v-1.79c0-5.26,2-7.61,6.54-7.61a21.89,21.89,0,0,1,7.3,1.35.94.94,0,0,0,1.24-.9V381.64a.94.94,0,0,0-.67-.91,35.46,35.46,0,0,0-10.76-1.55c-12,0-18.28,6.73-18.28,19.47v2.74h-6.22a1,1,0,0,0-1,.95v11.18a1,1,0,0,0,1,.95h6.22v44.41a1,1,0,0,0,1,.95h12.94a.94.94,0,0,0,1-.95v-44.4h12.09l18.52,44.4c-2.1,4.66-4.17,5.59-7,5.59a14.86,14.86,0,0,1-7.14-2,1,1,0,0,0-.75-.07,1,1,0,0,0-.56.51l-4.39,9.63a1,1,0,0,0,.41,1.23,27.24,27.24,0,0,0,13.82,3.54c9.56,0,14.85-4.46,19.5-16.44l22.46-58a.95.95,0,0,0-.87-1.29H542.25a1,1,0,0,0-.9.64l-13.81,39.43-15.12-39.46a.94.94,0,0,0-.88-.61H489.42Zm-28.78-.06H447.69a1,1,0,0,0-1,.95v56.48a1,1,0,0,0,1,.95h12.95a1,1,0,0,0,1-.95V402.41a1,1,0,0,0-1-.95Zm-6.4-25.72a9.28,9.28,0,1,0,9.28,9.28A9.28,9.28,0,0,0,454.24,375.73Zm113.42,43.88a9.14,9.14,0,1,1,9.16-9.16,9.08,9.08,0,0,1-9.16,9.16Zm0-17.37a8.23,8.23,0,1,0,8.15,8.2A8.15,8.15,0,0,0,567.71,402.25Zm2,9.14,2.58,3.61h-2.18l-2.32-3.31h-2V415H564v-9.56h4.26c2.23,0,3.69,1.14,3.69,3.05a2.84,2.84,0,0,1-2.21,2.9Zm-1.54-4.31h-2.37v3h2.37c1.18,0,1.89-.58,1.89-1.51S569.37,407.07,568.19,407.07Z" transform="translate(-18.39 -337.22)"/></svg>