<svg id="Layer_1" data-name="Layer 1" xmlns="http://www.w3.org/2000/svg" viewBox="0 0 192.76 192.76"><defs><style>.cls-1{fill:#fff;}.cls-1,.cls-2{fill-rule:evenodd;}.cls-2{fill:#231f20;}</style></defs><title>nike</title><path class="cls-2" d="M367.31,272.74c-9.88,11.6-19.35,26-19.45,36.75a12.74,12.74,0,0,0,4.35,10.26A21.13,21.13,0,0,0,366.48,325c7.15,0,14.24-2.87,19.8-5.1,9.36-3.74,112.79-48.66,112.79-48.66,1-.5.81-1.12-.44-.81-.5.13-112.6,30.5-112.6,30.5a24.74,24.74,0,0,1-6.52.93c-8.62.05-16.28-4.73-16.22-14.81,0-3.94,1.23-8.7,4-14.29Z" transform="translate(-324.57 -201.26)"/></svg>